<?xml version="1.0" encoding="utf-8"?>
<!-- Generator: Adobe Illustrator 25.0.1, SVG Export Plug-In . SVG Version: 6.00 Build 0)  -->
<svg version="1.0" id="katman_1" xmlns="http://www.w3.org/2000/svg" xmlns:xlink="http://www.w3.org/1999/xlink" x="0px" y="0px"
	 viewBox="0 0 560 400" style="enable-background:new 0 0 560 400;" xml:space="preserve">
<g>
	<path d="M137.8,233.6c10.9,0,18,4.3,21.5,7c2.2,1.3,2.4,3.5,0.8,5.8l-1.3,2c-1.6,2.4-3.4,2.5-5.8,1c-2.8-2-7.7-4.9-14.6-4.9
		c-13.1,0-22.6,9.7-22.6,23.1c0,13.3,9.4,23.4,22.8,23.4c7.9,0,13.5-3.5,16.5-5.9c2.4-1.6,4.3-1.3,5.8,1.2l1,2
		c1.3,2.2,0.9,4.2-1.2,5.6c-3.5,3-11.4,8-23.1,8c-20.5,0-34.6-14.6-34.6-34.1C103.1,248.4,117.4,233.6,137.8,233.6"/>
	<path d="M205.5,233.6c19.4,0,35,14.3,35,34c0,19.8-15.7,34.1-35,34.1c-19.4,0-34.9-14.4-34.9-34.1S186,233.6,205.5,233.6
		 M205.5,290.9c12.3,0,22.3-9.7,22.3-23.4c0-13.5-10-23.1-22.3-23.1c-12.2,0-22.4,9.6-22.4,23.1
		C183.2,281.2,193.3,290.9,205.5,290.9"/>
	<path d="M254.3,213.8c0-2.9,1.4-4.3,4.2-4.3h3.9c2.8,0,4.2,1.4,4.2,4.3V281c0,7.3,3.3,8.4,5.9,8.7c2,0.3,3.4,1.3,3.4,3.7v3.1
		c0,2.6-1.2,4.3-4.3,4.3c-7,0-17.3-2-17.3-18.2L254.3,213.8L254.3,213.8z"/>
	<path d="M318.3,233.6c19.4,0,35,14.3,35,34c0,19.8-15.6,34.1-35,34.1c-19.4,0-34.9-14.4-34.9-34.1
		C283.3,247.9,298.9,233.6,318.3,233.6 M318.3,290.9c12.3,0,22.4-9.7,22.4-23.4c0-13.5-10-23.1-22.4-23.1
		c-12.2,0-22.3,9.6-22.3,23.1C296,281.2,306.1,290.9,318.3,290.9"/>
	<path d="M367.1,239.4c0-2.9,1.4-4.2,4.2-4.2h3.5c2.9,0,4.2,1.3,4.2,4.2v7.5c0,2.8-0.4,4.9-0.4,4.9h0.3c2.9-8.7,10.1-17.1,19.9-17.1
		c3,0,4.1,1.4,4.1,4.2v3.5c0,2.8-1.7,4.2-4.6,4.2c-12.7,0-18.9,13.8-18.9,26.6v22.6c0,2.8-1.4,4.2-4.2,4.2h-3.9
		c-2.8,0-4.2-1.4-4.2-4.2L367.1,239.4L367.1,239.4z"/>
	<path d="M409,288.8l1.3-1.8c1.7-2.2,3.3-2.2,5.9-0.9c3,2,8.4,5.2,15.9,5.2c6.4,0,11-3.1,11-8.7c0-12.7-33.5-8.5-33.5-30.4
		c0-12.3,10.8-18.8,23.5-18.8c9.1,0,15,3.1,18,5c2.4,1.2,2.8,3.4,1.4,5.6l-1.2,2c-1.3,2.2-3.1,2.6-5.6,1.4
		c-2.8-1.6-7.1-3.7-13.3-3.7c-6.2,0-10.9,2.8-10.9,8.3c0,13,33.6,8.4,33.6,30.4c0,11-9.4,19.2-23.4,19.2c-10.8,0-18.2-4.3-21.8-7.1
		C407.8,293.3,407.7,291.1,409,288.8"/>
	<path d="M393.4,106.3c-8,3-15.7,7.3-22.3,13.6c-11.3,10.9-19.4,27.7-20.6,53.5c-0.4,8.9-0.1,18.8,1.3,29.9
		c10.4,1.2,19.7,1.7,28.1,1.3c26.9-0.9,44.2-9.2,55.4-20.7c6.8-7.1,11.3-15.5,14.3-24.1c8.7-25.3,4.5-53.5,7.3-61.7
		C448.4,101.2,419.1,96.7,393.4,106.3"/>
</g>
</svg>
