<?xml version="1.0" encoding="UTF-8" standalone="no"?>
<svg
   xmlns:dc="http://purl.org/dc/elements/1.1/"
   xmlns:cc="http://creativecommons.org/ns#"
   xmlns:rdf="http://www.w3.org/1999/02/22-rdf-syntax-ns#"
   xmlns:svg="http://www.w3.org/2000/svg"
   xmlns="http://www.w3.org/2000/svg"
   xmlns:sodipodi="http://sodipodi.sourceforge.net/DTD/sodipodi-0.dtd"
   xmlns:inkscape="http://www.inkscape.org/namespaces/inkscape"
   inkscape:version="0.92.3 (2405546, 2018-03-11)"
   height="101.513"
   width="512"
   sodipodi:docname="Viacom18.svg"
   xml:space="preserve"
   viewBox="-153 -46 125.78816 24.939714"
   y="0px"
   x="0px"
   id="layer"
   version="1.1"><metadata
   id="metadata320"><rdf:RDF><cc:Work
       rdf:about=""><dc:format>image/svg+xml</dc:format><dc:type
         rdf:resource="http://purl.org/dc/dcmitype/StillImage" /><dc:title /></cc:Work></rdf:RDF></metadata><defs
   id="defs318"><clipPath
     id="clipPath4172"
     clipPathUnits="userSpaceOnUse"><path
       style="clip-rule:evenodd"
       id="path4174"
       d="M 1.16e-7,1.8311e-4 H 720 V 540.00018 H 1.16e-7 Z"
       inkscape:connector-curvature="0" /></clipPath><clipPath
     id="clipPath4182"
     clipPathUnits="userSpaceOnUse"><path
       id="path4184"
       d="M 0,0 H 368.63 V 56.843 H 0 Z"
       inkscape:connector-curvature="0" /></clipPath><clipPath
     id="clipPath4196"
     clipPathUnits="userSpaceOnUse"><path
       style="clip-rule:evenodd"
       id="path4198"
       d="M 0,56.843 V -0.63717 H 369.24 V 56.843"
       inkscape:connector-curvature="0" /></clipPath></defs><sodipodi:namedview
   inkscape:current-layer="layer"
   inkscape:window-maximized="1"
   inkscape:window-y="-8"
   inkscape:window-x="-8"
   inkscape:cy="-47.625195"
   inkscape:cx="839.98859"
   inkscape:zoom="0.28624108"
   fit-margin-bottom="0"
   fit-margin-right="0"
   fit-margin-left="0"
   fit-margin-top="0"
   showgrid="false"
   id="namedview316"
   inkscape:window-height="705"
   inkscape:window-width="1366"
   inkscape:pageshadow="2"
   inkscape:pageopacity="0"
   guidetolerance="10"
   gridtolerance="10"
   objecttolerance="10"
   borderopacity="1"
   bordercolor="#666666"
   pagecolor="#ffffff" />
<style
   id="style2"
   type="text/css">
  svg { filter: invert(0); }
	.st0{fill:#E12823;}
	.st1{clip-path:url(#SVGID_2_);fill:url(#SVGID_3_);}
	.st2{clip-path:url(#SVGID_5_);fill:url(#SVGID_6_);}
	.st3{clip-path:url(#SVGID_8_);fill:url(#SVGID_9_);}
	.st4{clip-path:url(#SVGID_11_);fill:url(#SVGID_12_);}
	.st5{clip-path:url(#SVGID_14_);fill:url(#SVGID_15_);}
	.st6{clip-path:url(#SVGID_17_);fill:url(#SVGID_18_);}
	.st7{clip-path:url(#SVGID_20_);fill:url(#SVGID_21_);}
	.st8{clip-path:url(#SVGID_23_);fill:url(#SVGID_24_);}
	.st9{clip-path:url(#SVGID_26_);fill:url(#SVGID_27_);}
	.st10{clip-path:url(#SVGID_29_);fill:url(#SVGID_30_);}
	.st11{clip-path:url(#SVGID_32_);}
	.st12{clip-path:url(#SVGID_34_);fill:url(#SVGID_35_);}
	.st13{fill:#F6E65B;}
	.st14{fill:#030000;}
	.st15{fill:#E50012;}
	.st16{fill-rule:evenodd;clip-rule:evenodd;fill:#FFFFFF;}
	.st17{fill:#231815;}
	.st18{fill:none;stroke:#030000;stroke-width:2.4702;}
</style>

<g
   transform="matrix(0.96730289,0,0,-1.0065296,-153,-38.184376)"
   id="g4188"
   style="fill:#000080"><g
     id="g4190"
     style="fill:#000080" /></g><g
   id="g510"
   transform="matrix(0.26903683,0,0,0.26903683,-111.83737,-33.624306)"><g
     id="g492"><path
       d="m 86.542888,17.755226 v 0 c 9.431203,0 14.944832,-6.798101 14.944832,-16.84326595 0,-10.65008965 -5.881204,-16.84326605 -14.944832,-16.84326605 -9.653683,0 -15.099598,6.7226109 -15.099598,16.84326605 0,9.66771695 5.300819,16.84326595 15.099598,16.84326595 z m 0,-45.468968 v 0 c 17.624262,0 30.179852,9.969676 30.179852,28.62570205 0,17.82463295 -11.60764,28.70104895 -30.179852,28.70104895 -18.146603,0 -30.266908,-10.423478 -30.266908,-28.70104895 0,-18.05210805 11.97521,-28.62570205 30.266908,-28.62570205 z"
       style="fill:#0044aa;fill-opacity:1;fill-rule:nonzero;stroke:none;stroke-width:0.98672098"
       id="path480"
       inkscape:connector-curvature="0" /><path
       d="m -19.628278,7.9365301 v 0 c 0,5.5882519 -2.466622,9.9696759 -9.721394,9.9696759 h -7.544962 c -5.30082,0 -8.415535,-1.510801 -8.415535,-5.966708 0,-4.3059333 2.901908,-6.0432034 8.415535,-6.0432034 h 17.266356 z M -26.66057,-27.109824 v 0 h -29.682656 v 4.304927 c 0,3.776499 1.882371,7.477508 7.038096,7.477508 2.253816,0 18.93979,0 18.93979,0 7.980249,0 10.737062,2.719643 10.737062,9.2902687 v 0.9823729 h -20.023169 c -14.954503,0 -20.39268,7.174543 -20.39268,16.9187564 0,11.857724 7.624282,17.069242 20.39268,17.069242 h 13.34878 c 17.4888358,0 21.2613171,-9.139098 21.2613171,-21.1487068 V -6.11261 c 0,-12.991278 -4.6430539,-20.997214 -21.6192201,-20.997214 z"
       style="fill:#0044aa;fill-opacity:1;fill-rule:nonzero;stroke:none;stroke-width:0.98672098"
       id="path476"
       inkscape:connector-curvature="0" /><path
       id="path474"
       d="m 36.755808,-15.327389 v 0 h 7.399867 c 5.30082,0 8.425208,-2.039228 8.425208,-7.023563 v -4.758872 H 31.532372 c -17.556547,0 -25.9817553,10.801069 -25.9817553,28.02178405 0,21.45025295 12.8457823,28.02129095 25.9817553,28.02129095 h 21.048511 v -4.833869 c 0,-4.909851 -3.269484,-6.94908 -8.057633,-6.94908 h -7.767442 c -8.338151,0 -16.105593,-3.096085 -16.105593,-16.23834195 0,-11.40498705 5.881201,-16.23934905 16.105593,-16.23934905 z"
       style="fill:#0044aa;fill-opacity:1;fill-rule:nonzero;stroke:none;stroke-width:0.98672098"
       inkscape:connector-curvature="0" /><path
       id="path472"
       d="m -122.01439,13.600272 v 0 c 0,0 -12.48111,-33.987485 -13.20755,-35.951224 -0.94312,-2.644153 -2.24898,-4.758872 -7.0381,-4.758872 H -153 l 22.13286,56.043075 h 16.10946 l 22.929915,-56.043075 h -9.505685 c -4.06364,0 -5.65969,1.81276 -6.67633,4.532403 l -13.78696,36.177693 z"
       style="fill:#0044aa;fill-opacity:1;fill-rule:nonzero;stroke:none;stroke-width:0.98672098"
       inkscape:connector-curvature="0" /><path
       id="path470"
       d="m 165.63924,13.071844 v 0 c 0,0 -9.15068,-27.26588 -10.89183,-32.402201 -1.08337,-3.47454 -2.67942,-7.779467 -10.15668,-7.779467 h -17.05355 v 56.043075 h 5.73611 c 4.42057,0 7.17739,-2.03934 7.17739,-6.797708 v -39.124712 h 0.22248 l 16.61826,45.92242 h 15.52521 l 16.61827,-45.92242 h 0.22248 v 39.200302 c 0,3.927478 2.03133,6.722118 7.17738,6.722118 h 7.18706 v -56.043075 h -16.03788 c -5.65872,0 -9.14101,1.66178 -10.88216,6.873591 -1.16076,3.47454 -11.17234,33.308077 -11.17234,33.308077 z"
       style="fill:#0044aa;fill-opacity:1;fill-rule:nonzero;stroke:none;stroke-width:0.98672098"
       inkscape:connector-curvature="0" /><path
       id="path4200"
       d="m -85.151441,-27.109824 v 0 49.396447 c 0,3.851988 2.177399,6.646628 6.966516,6.646628 h 7.546897 v -56.043075 z"
       style="fill:#0044aa;fill-opacity:1;fill-rule:nonzero;stroke:none;stroke-width:0.98672098"
       inkscape:connector-curvature="0" /></g><g
     id="g497"><path
       style="fill:#ff0000"
       id="path297"
       d="m 224.74996,-46 v 92.7 h 89.8 v -65.5 c 0,-15 -11.8,-27.2 -26.3,-27.2"
       class="st15"
       inkscape:connector-curvature="0" /><polyline
       style="clip-rule:evenodd;fill:#ffffff;fill-rule:evenodd"
       transform="translate(-51.850036,-478.9)"
       id="polyline299"
       points="307.5,452 307.5,509.4 294.5,509.4 294.5,465.3 285.7,465.3 285.7,452 "
       class="st16" /><path
       style="clip-rule:evenodd;fill:#ffffff;fill-rule:evenodd"
       id="path301"
       d="m 274.64996,11.7 c 0.1,1.9 0.7,3.5 1.9,4.8 1.1,1.3 2.6,2 4.3,2 1.7,0 3.2,-0.5 4.3,-1.6 1.4,-1.2 2.1,-2.9 2.1,-5.1 0,-1.9 -0.6,-3.5 -1.8,-4.8 -1.2,-1.4 -2.8,-2.1 -4.7,-2.1 -1.8,0 -3.3,0.7 -4.5,2.1 -1.1,1.5 -1.7,3 -1.6,4.7 m 11.8,-22.6 c 0,-2 -0.7,-3.4 -1.8,-4.3 -1.1,-0.9 -2.4,-1.3 -4,-1.2 -1.5,0.1 -2.7,0.7 -3.7,1.7 -1,1 -1.5,2.2 -1.5,3.7 0,1.8 0.4,3.2 1.4,4.3 1,1.1 2.3,1.7 4,1.7 1.5,0.1 2.9,-0.5 4,-1.6 1.1,-1.2 1.7,-2.6 1.6,-4.3 m -17.7,10.2 c -3.9,-2.5 -5.8,-6.2 -5.9,-11 0,-4.2 1.6,-7.9 4.8,-11.2 3.2,-3.3 7.5,-4.9 12.9,-4.9 5.5,0 9.9,1.6 13.3,4.9 3.1,3 4.7,6.6 4.7,10.9 0,5.1 -1.9,8.9 -5.7,11.4 5.1,2.9 7.7,7.4 7.7,13.6 0,3.2 -0.8,6.2 -2.5,9.1 -1.6,2.9 -4,5.2 -7.1,7 -3,1.7 -6.4,2.6 -10.3,2.5 -6,-0.1 -10.7,-1.9 -14.3,-5.6 -3.7,-3.8 -5.5,-8 -5.5,-12.7 0,-2.6 0.7,-5.2 2.1,-7.9 1.5,-2.6 3.3,-4.6 5.8,-6.1"
       class="st16"
       inkscape:connector-curvature="0" /></g></g></svg>